<svg width="50" height="50" viewBox="0 0 50 50" fill="none" xmlns="http://www.w3.org/2000/svg">
<g clip-path="url(#clip0_357_8796)">
<path fill-rule="evenodd" clip-rule="evenodd" d="M24.0812 0.906258C23.3874 1.13126 22.9874 1.53126 22.7937 2.18438C22.6843 2.55001 22.6655 3.40001 22.6655 7.83751C22.6655 13.7156 22.6593 13.6406 23.2593 14.2406C24.0624 15.0406 25.9374 15.0406 26.7405 14.2406C27.3405 13.6406 27.3343 13.7156 27.3343 7.83751C27.3343 2.15001 27.3249 2.05001 26.8624 1.50001C26.4749 1.04063 26.0593 0.887508 25.1249 0.862508C24.7764 0.842765 24.4268 0.857419 24.0812 0.906258ZM8.60303 7.08126C8.10928 7.30626 7.38116 8.01876 7.12803 8.52501C6.99781 8.77774 6.92676 9.05677 6.92026 9.341C6.91377 9.62523 6.97199 9.90722 7.09053 10.1656C7.32178 10.6813 14.5843 17.9688 15.1562 18.2594C15.9687 18.676 16.7947 18.474 17.6343 17.6531C18.4593 16.8469 18.678 15.9719 18.2593 15.1563C17.9687 14.5844 10.6812 7.32188 10.1655 7.09063C9.91905 6.98429 9.65368 6.92865 9.38524 6.92704C9.1168 6.92543 8.85078 6.97788 8.60303 7.08126ZM40.1655 7.13126C39.7812 7.30938 39.1249 7.92501 35.9937 11.0656C33.1155 13.95 32.2374 14.8813 32.0968 15.1875C31.9806 15.4416 31.9207 15.7178 31.9212 15.9972C31.9217 16.2766 31.9827 16.5526 32.0999 16.8063C32.3187 17.275 33.0374 18.0125 33.5218 18.2656C34.0124 18.5219 34.7405 18.5188 35.2499 18.2594C35.7718 17.9906 42.9905 10.7719 43.2593 10.25C43.3869 9.9812 43.4538 9.68765 43.4555 9.39011C43.4571 9.09257 43.3933 8.79831 43.2687 8.52813C42.9228 7.9498 42.4343 7.46991 41.8499 7.13438C41.5912 6.99495 41.302 6.92169 41.0081 6.92115C40.7142 6.9206 40.4248 6.99278 40.1655 7.13126ZM2.18428 22.7875C1.26345 23.0771 0.804076 23.8135 0.806159 24.9969C0.809284 26.2063 1.25928 26.9313 2.18116 27.2063C2.54991 27.3156 3.37178 27.3344 7.83741 27.3344C12.4905 27.3344 13.1124 27.3188 13.4937 27.1938C13.7739 27.1022 14.0287 26.9458 14.2372 26.7373C14.4457 26.5288 14.6021 26.274 14.6937 25.9938C14.9624 25.1656 14.828 23.9906 14.3999 23.4094C14.2293 23.2218 14.0273 23.0653 13.803 22.9469L13.3749 22.7094L7.95928 22.6906C3.59991 22.6781 2.47178 22.6969 2.18428 22.7875ZM36.703 22.7438C36.2807 22.8606 35.8989 23.0921 35.5999 23.4125C35.1718 23.9906 35.0374 25.1656 35.3062 25.9938C35.4874 26.5563 35.9437 27.0125 36.5062 27.1938C36.8874 27.3188 37.5093 27.3344 42.1624 27.3344C46.628 27.3344 47.4499 27.3156 47.8187 27.2063C48.7405 26.9313 49.1905 26.2063 49.1937 24.9969C49.1937 23.7938 48.7343 23.0719 47.7812 22.7844C47.4593 22.6875 46.4499 22.6688 42.1749 22.675C39.3062 22.6813 36.8437 22.7125 36.703 22.7438ZM15.1655 32.1313C14.7812 32.3094 14.1249 32.925 10.9937 36.0656C8.11553 38.95 7.23741 39.8813 7.09678 40.1875C6.98055 40.4416 6.92065 40.7178 6.92119 40.9972C6.92173 41.2766 6.9827 41.5526 7.09991 41.8063C7.31866 42.275 8.03741 43.0125 8.52178 43.2656C9.01241 43.5219 9.74053 43.5188 10.2499 43.2594C10.7718 42.9906 17.9905 35.7719 18.2593 35.25C18.3869 34.9812 18.4538 34.6877 18.4555 34.3901C18.4571 34.0926 18.3933 33.7983 18.2687 33.5281C17.9228 32.9498 17.4343 32.4699 16.8499 32.1344C16.5912 31.9949 16.302 31.9217 16.0081 31.9211C15.7142 31.9206 15.4248 31.9928 15.1655 32.1313ZM33.603 32.0813C33.1093 32.3063 32.3812 33.0188 32.128 33.525C31.9978 33.7777 31.9268 34.0568 31.9203 34.341C31.9138 34.6252 31.972 34.9072 32.0905 35.1656C32.3218 35.6813 39.5843 42.9688 40.1562 43.2594C40.9687 43.676 41.7947 43.474 42.6343 42.6531C43.4593 41.8469 43.678 40.9719 43.2593 40.1563C42.9687 39.5844 35.6812 32.3219 35.1655 32.0906C34.9191 31.9843 34.6537 31.9287 34.3852 31.927C34.1168 31.9254 33.8508 31.9779 33.603 32.0813ZM24.203 35.2406C23.781 35.3599 23.3995 35.5922 23.0999 35.9125C22.6687 36.4938 22.6655 36.5344 22.6655 42.1531C22.6655 46.6281 22.6843 47.45 22.7937 47.8188C23.0645 48.7354 23.7999 49.1927 24.9999 49.1906C26.1999 49.1948 26.9353 48.7375 27.2062 47.8188C27.3999 47.1563 27.3968 37.1094 27.1999 36.5313C27.139 36.2983 27.028 36.0815 26.8748 35.8958C26.7215 35.7102 26.5296 35.5602 26.3124 35.4563C25.9687 35.2688 25.7687 35.2219 25.178 35.2C24.8525 35.1796 24.5257 35.1932 24.203 35.2406Z" fill="white"/>
</g>
<defs>
<clipPath id="clip0_357_8796">
<rect width="50" height="50" fill="white"/>
</clipPath>
</defs>
</svg>
