<svg width="573" height="573" viewBox="0 0 573 573" fill="none" xmlns="http://www.w3.org/2000/svg">
<path fill-rule="evenodd" clip-rule="evenodd" d="M266.077 27.5489C264.538 27.775 260.132 28.08 256.285 28.2266C241.783 28.7783 229.294 30.494 216.9 33.6359C214.474 34.2515 212.131 34.6174 211.695 34.4501C211.258 34.2828 211.026 34.3466 211.177 34.5917C211.548 35.1916 206.579 36.4886 205.744 36.0102C205.381 35.802 205.257 35.825 205.47 36.0611C205.998 36.6481 189.844 42.1246 189.044 41.63C188.681 41.4056 188.556 41.48 188.755 41.8029C189.211 42.5404 182.137 45.5598 181.245 45.0087C180.864 44.7736 180.715 44.8268 180.903 45.1312C181.332 45.8245 173.042 49.9491 172.229 49.4466C171.892 49.2384 171.771 49.3173 171.959 49.6223C172.147 49.9267 171.368 50.615 170.227 51.1516C166.502 52.9031 159.342 57.1916 151.754 62.2171C147.659 64.9288 144.07 67.1475 143.78 67.1475C143.489 67.1475 143.251 67.3724 143.251 67.6466C143.251 68.3108 137.685 72.5026 137.041 72.3235C136.763 72.2463 136.599 72.3991 136.677 72.6626C136.753 72.9262 135.557 74.146 134.019 75.3737C132.48 76.6014 129.244 79.4066 126.828 81.6079C124.412 83.8093 122.203 85.4661 121.918 85.2904C121.634 85.1142 121.47 85.2104 121.554 85.5036C121.639 85.7969 119.684 88.1448 117.21 90.7211C113.461 94.6263 105.697 103.714 99.8216 111.074C97.7853 113.624 90.6038 124.06 88.1803 127.989C86.9979 129.906 85.7724 131.315 85.4568 131.12C85.1373 130.923 85.0517 131.038 85.2643 131.382C85.4736 131.721 83.7496 135.47 81.4335 139.714C79.1175 143.958 77.2222 147.638 77.2222 147.891C77.2222 148.144 76.9312 148.172 76.5759 147.952C76.1915 147.714 76.0812 147.797 76.3045 148.158C76.5099 148.491 75.4327 151.624 73.9107 155.121C70.8649 162.116 66.9356 173.308 64.8809 180.84C64.1523 183.511 63.3186 185.55 63.0287 185.37C62.7383 185.191 62.679 185.333 62.8972 185.686C63.1154 186.039 62.7478 188.911 62.0802 192.068C61.4127 195.224 60.7686 198.563 60.6483 199.486C60.528 200.409 60.1844 202.547 59.885 204.237C59.5857 205.928 59.2035 208.698 59.0356 210.392C58.8677 212.088 58.4514 215.867 58.1106 218.791C57.4061 224.83 57.1084 327.225 57.7385 346.653C58.156 359.512 59.5056 370.201 62.177 381.791C63.0847 385.729 63.6549 389.231 63.4439 389.572C63.196 389.972 63.318 390.033 63.7869 389.743C64.3364 389.403 64.4439 389.661 64.2273 390.795C64.0695 391.621 64.0824 392.154 64.2564 391.98C64.4304 391.806 65.868 395.512 67.4515 400.214C69.0346 404.918 71.1453 410.709 72.1419 413.083C73.1385 415.458 73.7691 417.7 73.543 418.066C73.2991 418.461 73.3707 418.583 73.7198 418.367C74.4249 417.931 75.1412 419.529 74.6196 420.373C74.4165 420.701 74.5133 420.807 74.8345 420.608C75.4786 420.21 78.1455 426.194 77.8735 427.427C77.7689 427.902 77.9642 428.024 78.399 427.755C78.8976 427.446 78.9781 427.622 78.6866 428.381C78.4644 428.961 78.4633 429.254 78.6844 429.033C79.2132 428.504 82.9432 435.249 82.5096 435.951C82.3255 436.248 82.5085 436.423 82.9164 436.338C83.326 436.253 83.6231 436.619 83.5806 437.157C83.5386 437.693 83.7093 438.004 83.96 437.849C84.4261 437.561 85.3791 439.728 85.153 440.562C85.0847 440.816 85.3293 440.837 85.6969 440.61C86.1569 440.326 86.2503 440.497 85.9968 441.158C85.7489 441.804 85.8401 441.987 86.2766 441.717C86.7136 441.447 86.8048 441.629 86.5564 442.277C86.3538 442.805 86.4103 443.1 86.6812 442.932C87.3146 442.541 91.8919 449.805 91.456 450.51C91.2758 450.802 91.3659 450.971 91.6569 450.887C92.2679 450.709 103.108 464.944 103.133 465.957C103.141 466.328 103.338 466.514 103.571 466.371C104.156 466.009 106.377 468.934 105.991 469.558C105.818 469.837 105.907 469.997 106.188 469.912C107.061 469.649 117.635 481.136 117.187 481.86C116.945 482.253 117.018 482.373 117.369 482.157C118.057 481.731 128.497 491.098 128.269 491.937C128.185 492.249 128.389 492.335 128.724 492.128C129.503 491.647 131.589 493.503 131.121 494.261C130.927 494.575 131.023 494.674 131.334 494.482C132.026 494.055 139.676 500.084 139.46 500.886C139.376 501.2 139.555 501.304 139.859 501.116C140.163 500.929 142.246 502.126 144.489 503.776C146.732 505.427 150.622 508.089 153.132 509.692C155.642 511.295 157.844 512.991 158.024 513.461C158.204 513.931 158.613 514.154 158.932 513.957C159.647 513.515 166.805 517.625 166.416 518.255C166.262 518.504 166.568 518.542 167.096 518.34C167.723 518.098 167.923 518.186 167.672 518.592C167.445 518.961 167.691 519.197 168.28 519.175C169.785 519.117 184.204 526.258 183.701 526.811C183.458 527.077 183.587 527.105 183.986 526.875C184.397 526.638 187.239 527.448 190.542 528.744C193.75 530.002 196.649 531.031 196.985 531.031C197.321 531.031 197.416 531.322 197.197 531.678C196.953 532.071 197.042 532.172 197.426 531.935C198.075 531.534 209.99 534.904 210.287 535.572C210.379 535.779 210.985 535.81 211.633 535.64C212.489 535.417 212.693 535.526 212.376 536.039C212.054 536.56 212.251 536.648 213.123 536.371C213.774 536.164 214.612 536.184 214.986 536.415C215.359 536.646 216.358 536.911 217.205 537.003C218.052 537.096 221.085 537.666 223.945 538.27C234.995 540.603 248.711 542.209 260.761 542.58C291.042 543.514 298.182 543.435 320.915 541.918C323.069 541.774 327.034 541.595 329.725 541.52C332.417 541.445 334.62 541.247 334.622 541.081C334.623 540.915 336.828 540.449 339.521 540.047C342.214 539.644 347.879 538.569 352.111 537.658C356.343 536.747 360.096 536.181 360.451 536.4C360.852 536.648 360.946 536.554 360.698 536.154C360.46 535.768 360.66 535.508 361.195 535.508C361.688 535.508 365.23 534.487 369.066 533.239C372.901 531.991 376.353 531.15 376.736 531.37C377.118 531.59 377.251 531.57 377.03 531.326C376.809 531.082 379.903 529.548 383.904 527.918C392.67 524.347 404.759 518.303 412.552 513.596C415.698 511.695 418.577 510.141 418.951 510.141C419.324 510.141 419.539 509.993 419.427 509.813C419.141 509.35 428.204 503.316 429.046 503.409C429.428 503.451 429.618 503.289 429.468 503.048C429.32 502.807 430.455 501.65 431.993 500.478C433.53 499.305 434.788 498.146 434.788 497.902C434.788 497.657 435.064 497.457 435.401 497.457C435.738 497.457 438.141 495.631 440.739 493.4C443.338 491.169 445.707 489.407 446.001 489.483C446.297 489.56 446.476 489.423 446.399 489.18C446.322 488.936 448 487.11 450.127 485.123C452.254 483.135 456.389 478.865 459.316 475.634C462.243 472.402 464.846 469.822 465.101 469.898C465.356 469.975 465.501 469.828 465.424 469.571C465.235 468.938 473.176 458.836 473.612 459.154C473.802 459.293 473.839 459.246 473.695 459.05C473.241 458.436 475.69 455.456 476.325 455.849C476.668 456.061 476.768 455.962 476.556 455.62C476.352 455.289 477.579 452.935 479.283 450.389C482.093 446.191 483.794 443.925 482.634 445.923C482.325 446.456 482.389 446.579 482.833 446.304C483.194 446.081 483.345 445.668 483.171 445.386C482.997 445.104 484.009 442.97 485.42 440.645C486.832 438.32 489.694 433.024 491.78 428.877C493.867 424.729 495.76 421.521 495.987 421.748C496.214 421.975 496.217 421.686 495.995 421.107C495.764 420.506 495.812 420.189 496.105 420.371C496.388 420.545 496.653 420.137 496.693 419.462C496.813 417.469 499.214 412.383 499.85 412.776C500.171 412.974 500.264 412.866 500.059 412.534C499.854 412.204 501.082 407.756 502.787 402.65C507.383 388.883 510.466 375.332 512.037 361.992C512.706 356.321 512.931 221.147 512.284 214.335C512.093 212.323 511.438 207.173 510.829 202.889C510.221 198.606 509.856 194.753 510.02 194.327C510.183 193.901 510.068 193.706 509.764 193.894C509.46 194.082 509.21 193.774 509.21 193.21C509.21 189.423 503.133 168.994 498.798 158.206C497.447 154.844 496.507 151.804 496.71 151.448C496.913 151.094 496.876 150.987 496.627 151.213C496.378 151.438 494.431 148.065 492.301 143.717C488.783 136.538 485.322 130.439 480.474 122.877C479.506 121.367 478.798 119.856 478.9 119.519C479.003 119.183 478.902 119.092 478.677 119.318C478.124 119.871 473.341 113.017 473.782 112.303C473.974 111.994 473.859 111.908 473.527 112.113C473.195 112.318 472.345 111.665 471.638 110.661C468.812 106.65 461.265 97.6474 456.573 92.6891C453.843 89.8045 451.79 87.2629 452.012 87.0419C452.233 86.8203 452.133 86.7229 451.79 86.8259C450.996 87.0632 444.867 81.3304 445.344 80.7965C445.539 80.5772 445.421 80.5565 445.081 80.7501C444.309 81.1905 441.896 78.7065 442.477 78.0675C442.71 77.8107 442.608 77.7681 442.25 77.9729C441.467 78.4206 438.009 75.6552 438.452 74.9367C438.623 74.6608 438.419 74.5668 437.999 74.728C437.197 75.0352 435.355 73.3873 435.527 72.5166C435.582 72.2385 435.174 71.9441 434.62 71.863C433.206 71.6554 431.933 70.4898 432.362 69.7954C432.572 69.4552 432.451 69.3807 432.071 69.6152C431.378 70.0438 428.49 68.0999 428.931 67.5017C429.074 67.307 429.034 67.2639 428.84 67.4066C428.248 67.8408 420.257 61.9748 420.627 61.3772C420.819 61.0661 420.69 60.9933 420.335 61.2127C419.544 61.7012 415.612 59.107 416.185 58.4747C416.414 58.2218 416.306 58.1843 415.945 58.3908C415.066 58.8944 411.188 56.5666 411.653 55.8151C411.864 55.4732 411.752 55.3881 411.388 55.6131C410.524 56.1469 402.231 51.5372 402.697 50.7823C402.906 50.4454 402.801 50.3503 402.457 50.5629C401.636 51.0705 397.815 49.201 398.246 48.5032C398.435 48.1982 398.324 48.1126 398.002 48.3118C397.115 48.8596 393.263 47.0847 393.723 46.3399C393.964 45.9499 393.86 45.867 393.447 46.1216C393.082 46.3477 390.084 45.4054 386.786 44.0283C383.487 42.6512 377.6 40.4319 373.702 39.0974C369.804 37.7628 366.761 36.4344 366.939 36.1462C367.12 35.853 366.851 35.7797 366.33 35.9794C365.817 36.1764 361.988 35.4641 357.82 34.3958C353.654 33.3282 349.737 32.4541 349.116 32.4541C348.397 32.4541 348.135 32.2169 348.393 31.7994C348.666 31.3574 348.491 31.2628 347.852 31.5079C347.332 31.7071 344.015 31.3764 340.481 30.7721C330.977 29.1471 316.893 27.8394 313.221 28.2411C311.451 28.4342 310.003 28.3861 310.003 28.1343C310.003 27.3329 271.079 26.8148 266.077 27.5489ZM251.63 61.6402C251.113 61.9295 248.736 62.2736 246.346 62.4051C235.079 63.0257 207.993 69.4339 209.096 71.2184C209.329 71.5955 209.112 71.6789 208.505 71.4461C206.487 70.6717 180.843 82.1798 181.656 83.4948C181.873 83.8456 181.778 83.9492 181.435 83.7371C180.615 83.2295 173.948 87.2691 174.399 88.0004C174.611 88.3429 174.49 88.4168 174.104 88.1784C173.204 87.6222 169.444 90.0104 169.917 90.8369C170.123 91.1956 170.091 91.3086 169.847 91.0887C169.167 90.4749 167.226 91.7277 167.667 92.496C167.879 92.8653 167.852 92.9873 167.609 92.7674C167.365 92.5475 166.633 92.6527 165.981 93.0008C164.635 93.7192 156.695 99.5724 155.842 100.474C155.534 100.799 153.457 102.65 151.227 104.587C148.997 106.524 147.336 108.374 147.537 108.698C147.737 109.023 147.65 109.133 147.344 108.944C146.765 108.586 135.388 119.89 130.723 125.459C129.119 127.374 128.214 128.921 128.461 129.322C128.714 129.73 128.638 129.846 128.269 129.617C126.795 128.706 110.683 152.899 111.685 154.52C111.908 154.881 111.847 155.024 111.549 154.84C110.789 154.37 106.625 162.53 107.173 163.417C107.445 163.856 107.386 163.987 107.019 163.76C106.299 163.315 102.211 172.869 99.3941 181.58C95.7037 192.992 93.3882 204.324 91.3334 221.029C90.9126 224.45 90.7834 335.487 91.188 346.093C91.3284 349.786 91.6373 353.941 91.8734 355.326C92.1096 356.711 92.8202 360.992 93.4531 364.839C94.086 368.686 95.2309 374.478 95.9969 377.709C97.6918 384.855 101.87 397.903 102.366 397.597C102.563 397.475 102.776 397.987 102.838 398.735C103.063 401.453 108.272 412.646 109.079 412.147C109.612 411.817 110.436 413.509 109.97 413.975C109.809 414.136 109.677 413.932 109.677 413.522C109.677 413.111 109.542 412.911 109.377 413.076C109.01 413.443 110.266 416.319 110.793 416.319C111 416.319 111.17 416.662 111.17 417.082C111.17 417.501 112.384 419.957 113.869 422.538C120.206 433.555 128.64 444.802 138.372 455.21C146.828 464.253 160.593 476.049 161.811 475.296C162.082 475.129 162.235 475.324 162.151 475.732C162.066 476.14 162.428 476.44 162.955 476.399C163.481 476.358 163.859 476.61 163.794 476.959C163.729 477.307 164.114 477.558 164.649 477.516C165.184 477.474 165.499 477.638 165.349 477.882C164.804 478.763 181.523 488.78 182.515 488.167C182.885 487.937 183.002 488.018 182.791 488.359C182.355 489.064 183.952 489.78 184.797 489.259C185.175 489.025 185.225 489.161 184.934 489.632C184.599 490.174 184.734 490.274 185.436 490.004C185.965 489.802 186.27 489.841 186.115 490.091C185.685 490.788 190.663 493.004 191.734 492.593C192.333 492.363 192.541 492.451 192.305 492.833C191.089 494.8 225.179 505.833 233.149 506.052C234.735 506.095 235.937 506.286 235.82 506.476C235.471 507.04 248.586 508.608 258.803 509.224C270.058 509.902 310.092 509.538 320.076 508.666C323.923 508.33 329.435 507.679 332.326 507.219C335.217 506.759 337.711 506.513 337.87 506.672C338.029 506.83 338.434 506.745 338.77 506.483C339.106 506.221 340.388 505.853 341.619 505.665C346.835 504.871 356.388 502.29 356.062 501.761C355.864 501.441 355.997 501.376 356.375 501.609C357.33 502.199 369.418 498.07 368.95 497.314C368.711 496.928 368.913 496.837 369.504 497.064C370.718 497.53 376.679 495.252 376.214 494.5C376.019 494.185 376.128 494.092 376.455 494.295C377.238 494.778 378.912 494.124 378.518 493.488C378.35 493.216 378.577 493.133 379.022 493.304C380.821 493.994 404.394 480.623 403.611 479.356C403.428 479.06 403.544 478.982 403.869 479.183C404.51 479.579 410.765 475.264 417.428 469.829C422.023 466.081 439.53 448.854 439.141 448.464C439.008 448.331 440.015 447.025 441.379 445.561C444.115 442.624 448.448 436.64 453.43 428.918C457.319 422.89 465.645 406.319 465.761 404.374C465.807 403.617 466.001 403.094 466.194 403.213C467.091 403.767 474.54 381.381 474.706 377.627C474.756 376.504 474.954 375.681 475.145 375.797C475.337 375.913 475.64 375.195 475.818 374.201C475.997 373.207 476.762 368.994 477.519 364.839C479.93 351.608 480.113 346.098 480.11 286.609C480.108 241.69 479.94 228.374 479.286 220.951C478.309 209.885 476.792 199.677 476.179 200.056C475.938 200.205 475.863 199.859 476.012 199.288C476.162 198.716 475.513 195.254 474.571 191.593C472.232 182.51 472.199 182.403 471.795 182.65C471.6 182.769 471.42 181.99 471.395 180.917C471.371 179.844 471.119 178.799 470.836 178.594C470.553 178.39 470.299 177.97 470.272 177.663C470.116 175.868 468.668 172.437 468.192 172.732C467.863 172.935 467.804 172.797 468.05 172.399C468.607 171.497 467.276 168.344 466.531 168.803C466.188 169.015 466.119 168.89 466.362 168.496C466.902 167.623 464.424 161.662 463.706 162.105C463.402 162.293 463.318 162.179 463.521 161.852C464.004 161.069 463.35 159.395 462.714 159.789C462.442 159.957 462.385 159.662 462.588 159.134C462.858 158.431 462.758 158.296 462.215 158.632C461.71 158.944 461.607 158.874 461.893 158.412C462.588 157.288 450.898 137.314 449.906 137.928C449.662 138.078 449.498 137.763 449.54 137.228C449.582 136.689 449.285 136.323 448.875 136.408C448.467 136.493 448.292 136.306 448.485 135.994C449.192 134.851 431.817 114.406 430.717 115.086C430.398 115.282 430.291 115.196 430.478 114.893C431.068 113.938 418.28 102.161 417.306 102.764C416.975 102.968 416.87 102.872 417.071 102.548C417.534 101.797 405.232 92.1995 404.435 92.6919C404.107 92.8944 403.986 92.8217 404.167 92.5296C405.089 91.0372 375.945 74.8892 374.167 75.907C373.808 76.1124 373.708 76.067 373.945 75.8068C374.717 74.9569 357.004 68.4933 355.492 69.073C355.062 69.238 354.843 69.1597 355.004 68.8984C355.364 68.3164 348.335 66.3484 347.575 66.8179C347.276 67.0031 346.946 66.9142 346.843 66.6198C346.608 65.95 334.285 63.4375 325.392 62.2462C319.968 61.5199 312.323 61.3246 285.623 61.2306C265.807 61.1612 252.193 61.3252 251.63 61.6402ZM304.562 77.8856C301.845 78.476 298.122 81.637 297.108 84.2144C296.323 86.2115 296.336 96.1724 297.133 102.96C298.039 110.67 298.363 116.23 298.338 123.664C298.301 134.558 297.636 140.649 294.065 162.834C290.555 184.632 290.077 194.862 291.747 212.4C292.288 218.075 294.239 227.473 297.141 238.376C298.655 244.07 300.185 250.491 300.54 252.645C301.185 256.561 301.346 268.074 300.83 273.349C300.419 277.554 297.994 288.944 295.172 299.929C291.066 315.908 287.562 330.686 287.362 332.865C287.259 333.985 287.128 334.902 287.071 334.902C286.928 334.902 286.468 337.432 286.333 338.959C286.272 339.651 286.033 340.218 285.802 340.218C285.571 340.218 285.412 340.406 285.448 340.637C285.485 340.869 285.481 341.435 285.44 341.897C285.375 342.624 285.297 342.628 284.851 341.923C284.568 341.476 284.461 340.91 284.613 340.664C284.765 340.419 284.595 340.218 284.236 340.218C283.849 340.218 283.734 339.827 283.953 339.255C284.156 338.727 284.143 338.473 283.924 338.692C283.704 338.911 282.271 336.889 280.738 334.199C279.206 331.508 277.771 329.18 277.549 329.026C277.328 328.873 277.219 328.283 277.306 327.716C277.393 327.149 277.316 326.834 277.135 327.015C276.601 327.549 272.41 320.132 272.846 319.426C273.075 319.056 273 318.932 272.671 319.135C271.904 319.61 258.929 299.526 259.433 298.646C259.647 298.275 259.607 298.166 259.344 298.404C258.705 298.986 254.452 292.238 254.949 291.433C255.181 291.058 255.088 290.958 254.721 291.184C253.955 291.658 252.73 289.51 253.268 288.639C253.499 288.266 253.411 288.159 253.054 288.379C252.297 288.847 247.634 280.672 244.58 273.524C242.068 267.644 240.067 260.046 240.061 256.363C240.058 254.109 240.359 253.604 244.067 249.648C248.349 245.08 254.134 236.705 256.49 231.661C260.437 223.214 262.372 218.808 263.299 216.162C263.86 214.562 264.565 213.405 264.865 213.59C265.168 213.777 265.233 213.64 265.011 213.281C264.453 212.379 266.917 205.296 267.634 205.739C267.964 205.943 268.039 205.82 267.811 205.45C267.277 204.587 271.297 191.806 271.971 192.223C272.262 192.402 272.353 192.167 272.174 191.7C271.747 190.59 275.81 178.4 276.47 178.807C276.748 178.979 276.835 178.752 276.663 178.303C276.49 177.855 277.361 174.379 278.597 170.58C279.833 166.781 281.085 162.666 281.38 161.435C282.208 157.976 281.784 153.341 280.388 150.606C278.922 147.731 275.096 143.434 273.572 142.95C272.98 142.763 272.615 142.417 272.759 142.183C273.066 141.687 273.072 141.688 267.116 141.227C263.01 140.909 262.256 141.013 259.487 142.28C255.714 144.008 251.805 147.769 249.987 151.419C249.236 152.927 246.682 160.204 244.313 167.59C238.326 186.25 234.75 196.74 232.89 201.1C231.303 204.82 231.303 204.82 229.789 197.396C228.956 193.314 228.033 188.966 227.737 187.735C227.441 186.504 225.561 178.32 223.559 169.549C221.558 160.778 218.654 148.95 217.106 143.265C215.559 137.581 214.42 132.594 214.578 132.185C214.735 131.775 214.666 131.562 214.424 131.712C214.182 131.861 212.778 128.286 211.304 123.767C207.102 110.885 205.419 106.67 203.651 104.601C202.748 103.545 202.009 102.513 202.008 102.309C202.007 102.104 200.684 101.106 199.069 100.089C196.281 98.3363 195.858 98.2411 190.815 98.235C186.383 98.2294 185.106 98.4359 183.136 99.4789C178.813 101.766 175.338 106.063 174.88 109.69C174.766 110.587 174.515 111.821 174.321 112.431C173.77 114.167 175.008 119.898 177.752 128.321C179.138 132.575 180.129 136.428 179.954 136.884C179.775 137.35 179.878 137.562 180.189 137.37C180.494 137.182 180.743 137.164 180.743 137.331C180.743 137.498 181.771 141.052 183.029 145.23C184.285 149.409 185.169 153.203 184.993 153.663C184.788 154.198 184.904 154.356 185.314 154.102C185.75 153.833 185.854 154.092 185.64 154.913C185.465 155.578 185.552 155.98 185.831 155.807C186.11 155.635 186.338 155.659 186.338 155.862C186.338 156.065 186.983 158.653 187.77 161.613C188.558 164.574 189.085 167.445 188.942 167.993C188.783 168.603 188.912 168.848 189.277 168.623C189.658 168.387 189.759 168.688 189.557 169.462C189.382 170.126 189.437 170.548 189.678 170.399C190.246 170.048 190.957 174.463 190.461 175.265C190.219 175.657 190.344 175.715 190.809 175.428C191.357 175.09 191.467 175.341 191.256 176.443C191.103 177.249 191.16 177.795 191.385 177.656C191.953 177.305 193.203 183.963 192.716 184.75C192.499 185.102 192.562 185.24 192.857 185.058C193.454 184.69 198.993 211.36 198.435 211.917C197.516 212.836 163.551 203.112 164.17 202.108C164.301 201.897 163.866 201.689 163.202 201.646C161.025 201.505 149.844 195.94 150.289 195.219C150.543 194.809 150.459 194.705 150.069 194.946C149.185 195.492 145.922 193.71 146.397 192.941C146.637 192.553 146.526 192.477 146.104 192.737C145.343 193.208 139.256 188.691 134.142 183.86C132.363 182.18 130.408 180.646 129.797 180.453C129.186 180.258 128.855 179.828 129.061 179.494C129.288 179.126 129.173 179.05 128.768 179.301C128.4 179.528 126.947 179.792 125.539 179.887C122.81 180.07 118.98 182.306 117.845 184.377C117.507 184.993 117.076 185.623 116.887 185.776C116.082 186.43 114.246 190.802 113.334 194.234C112.194 198.525 112.279 207.068 113.466 207.464C113.848 207.591 114.018 207.925 113.844 208.207C113.67 208.488 113.837 208.719 114.214 208.719C114.591 208.719 114.743 208.876 114.551 209.067C113.988 209.631 116.829 212.982 119.772 215.226C121.27 216.369 122.343 217.55 122.155 217.854C121.966 218.16 122.1 218.228 122.458 218.007C122.811 217.789 123.92 218.221 124.922 218.968C129.556 222.423 144.244 229.561 155.104 233.635C157.469 234.522 159.255 235.487 159.075 235.78C158.894 236.072 159.012 236.146 159.337 235.946C159.662 235.745 161.652 236.122 163.76 236.784C165.868 237.446 167.971 238.039 168.432 238.102C168.894 238.166 169.975 238.503 170.835 238.852C171.695 239.201 173.015 239.641 173.769 239.83C174.529 240.021 174.978 240.435 174.777 240.76C174.557 241.116 174.686 241.179 175.106 240.92C175.964 240.389 187.533 243.397 187.131 244.047C186.971 244.306 187.197 244.381 187.633 244.214C188.07 244.047 190.416 244.418 192.847 245.038C195.278 245.659 198.145 246.291 199.217 246.443C202.864 246.959 204.521 247.663 204.692 248.768C205.717 255.363 208.556 269.021 209.916 273.909C212.267 282.349 216.255 292.732 218.893 297.277C220.101 299.359 220.911 301.349 220.694 301.701C220.433 302.123 220.55 302.185 221.04 301.882C221.583 301.546 221.683 301.681 221.413 302.384C221.21 302.912 221.267 303.207 221.538 303.039C222.229 302.612 226.724 309.94 226.264 310.743C226.058 311.104 226.095 311.212 226.348 310.983C226.981 310.41 229.575 314.343 229.086 315.133C228.857 315.504 228.941 315.616 229.285 315.403C229.617 315.199 230.52 316.132 231.331 317.516C232.13 318.879 233.186 320.396 233.677 320.887C234.168 321.379 234.423 322.165 234.243 322.635C234.062 323.104 234.121 323.361 234.372 323.206C234.624 323.051 236.066 324.968 237.577 327.467C239.087 329.966 240.578 332.29 240.89 332.631C241.878 333.714 244.262 338.764 244.068 339.363C243.965 339.679 244.065 339.754 244.289 339.53C244.867 338.952 249.699 347.39 249.227 348.154C249 348.521 249.087 348.63 249.436 348.414C249.796 348.192 252.063 351.719 255.119 357.26C257.914 362.329 260.202 366.617 260.202 366.789C260.202 366.961 258.376 366.928 256.145 366.716C249.586 366.09 238.425 366.258 233.902 367.05C229.298 367.856 220.323 370.409 205.534 375.12C193.534 378.943 188.713 379.819 184.243 378.988C179.039 378.02 175.718 376.289 171.591 372.393C168.403 369.383 155.808 354.595 155.983 354.067C156.059 353.837 155.926 353.711 155.686 353.787C155.446 353.865 153.243 351.818 150.789 349.24C143.469 341.547 128.769 328.973 122.268 324.844C119.93 323.36 116.017 323.439 113.453 325.024C108.396 328.149 106.43 334.497 107.706 343.575C107.944 345.268 108.17 347.196 108.208 347.859C108.247 348.521 108.449 348.958 108.658 348.83C109.226 348.479 109.811 350.739 109.347 351.491C109.079 351.926 109.191 351.99 109.686 351.683C110.241 351.34 110.326 351.49 110.023 352.279C109.8 352.859 109.794 353.157 110.01 352.942C110.225 352.727 111.308 354.105 112.417 356.005C113.643 358.104 117.653 362.763 122.644 367.885C132.588 378.089 133.77 379.444 133.341 380.139C133.157 380.436 133.259 380.524 133.566 380.333C134.386 379.827 137.31 383.066 136.791 383.905C136.508 384.363 136.594 384.454 137.048 384.174C137.746 383.742 141.989 388.147 141.713 389.018C141.636 389.261 141.858 389.46 142.207 389.46C142.555 389.46 144.381 391.144 146.264 393.202C150.305 397.62 159.985 405.787 160.676 405.36C160.941 405.196 161.158 405.269 161.158 405.522C161.158 406.058 161.72 406.387 167.34 409.143C178.387 414.559 192.875 414.146 214.283 407.805C232.254 402.482 237.035 401.19 237.932 401.414C238.456 401.544 238.979 401.367 239.095 401.018C239.231 400.613 241.605 400.313 245.697 400.184C253.534 399.937 257.106 400.96 263.83 405.377C269.182 408.893 275.453 414.516 274.942 415.343C274.73 415.686 274.845 415.768 275.217 415.538C275.569 415.321 276.505 415.745 277.299 416.481C278.443 417.541 279.145 419.432 280.685 425.602C281.754 429.883 282.529 433.945 282.408 434.629C282.279 435.351 282.418 435.728 282.741 435.528C283.079 435.319 283.196 435.858 283.041 436.914C282.901 437.865 282.963 438.534 283.177 438.402C283.641 438.115 286.912 454.703 289.03 468.08C289.858 473.312 290.675 477.97 290.845 478.432C291.016 478.893 291.11 479.477 291.054 479.729C290.77 481.01 292.191 489.372 292.973 491.019C295.22 495.755 300.031 496.347 321.062 494.481C324.227 494.2 326.288 493.15 327.594 491.154C328.044 490.466 329.437 485.496 330.69 480.11C336.623 454.591 342.73 437.81 354.417 414.92C362.881 398.342 370.623 384.473 371.211 384.836C371.496 385.013 371.568 384.895 371.37 384.576C371.173 384.257 372.11 381.637 373.451 378.754C380.719 363.143 384.501 347.568 383.609 336.92C383.317 333.429 383.317 333.429 389.328 333.886C400.598 334.742 417.878 334.178 427.513 332.64C430.437 332.173 433.945 331.65 435.308 331.479C439.56 330.945 446.131 329.073 449.212 327.52C456.179 324.006 459.473 319.505 459.79 313.067C460.136 306.045 456.955 299.834 451.493 296.861C447.809 294.856 442.842 294.569 437.865 296.073C430.058 298.434 413.955 300.853 409.821 300.286C408.517 300.108 407.37 300.191 407.27 300.472C407.109 300.925 398.637 301.319 393.379 301.117C391.421 301.042 391.421 301.042 393.1 299.699C394.022 298.961 394.973 298.477 395.211 298.625C395.45 298.772 395.576 298.647 395.492 298.348C395.261 297.531 421.342 276.351 422.044 276.785C422.384 276.995 422.491 276.901 422.287 276.571C422.086 276.248 423.171 275.032 424.696 273.869C426.221 272.706 427.597 271.421 427.753 271.013C427.909 270.605 428.332 270.272 428.692 270.272C429.051 270.272 431.588 268.5 434.328 266.336C437.076 264.166 439.59 262.573 439.933 262.785C440.289 263.005 440.4 262.918 440.193 262.582C439.99 262.254 442.481 260.033 445.842 257.545C455.073 250.713 457.538 248.017 459.328 242.799C460.56 239.208 460.6 230.042 459.4 226.172C458.445 223.092 454.786 218.926 451.876 217.604C446.911 215.349 442.399 216.595 436.165 221.945C434.421 223.442 432.749 224.597 432.45 224.513C432.151 224.428 432.048 224.588 432.22 224.867C432.501 225.321 422.575 233.357 408.273 244.251C405.445 246.406 401.038 249.868 398.48 251.944C395.922 254.022 393.564 255.556 393.238 255.356C392.913 255.155 392.81 255.254 393.009 255.577C393.209 255.899 391.548 257.621 389.319 259.403C387.089 261.186 383.574 264.127 381.505 265.941C379.245 267.922 377.48 269.075 377.082 268.829C376.701 268.594 376.567 268.659 376.766 268.981C377.088 269.5 369.131 277.546 368.296 277.546C368.09 277.546 365.87 279.686 363.364 282.302C360.858 284.918 358.893 287.059 358.998 287.059C359.103 287.059 358.321 288.003 357.261 289.157C356.201 290.311 355.333 291.57 355.331 291.955C355.33 292.34 355.105 292.654 354.831 292.654C353.93 292.654 349.812 301.307 348.585 305.777C347.65 309.189 347.395 311.608 347.441 316.658C347.519 325.332 347.45 324.504 348.735 332.104C351.008 345.54 350.314 349.497 343.183 363.786C340.938 368.285 339.101 372.25 339.101 372.599C339.101 372.948 338.906 373.232 338.669 373.232C338.431 373.232 337.74 374.177 337.133 375.331C336.527 376.485 335.171 378.94 334.122 380.787C331.01 386.265 324.058 399.566 322.502 403.02C321.67 404.867 320.809 406.074 320.471 405.866C320.132 405.656 320.007 405.837 320.176 406.295C320.335 406.731 320.15 407.842 319.764 408.765C319.063 410.444 319.063 410.444 318.736 408.485C318.556 407.408 318.304 405.646 318.174 404.568C318.046 403.491 317.892 402.61 317.833 402.61C317.708 402.61 317.443 399.763 317.026 393.937C316.454 385.962 316.792 359.092 317.49 356.993C317.642 356.538 317.755 355.41 317.743 354.487C317.685 350.028 321.615 330.912 326.888 310.001C330.677 294.98 332.052 288.728 332.653 283.785C332.817 282.446 333.052 281.184 333.178 280.981C333.4 280.621 333.966 276.002 334.581 269.539C334.605 269.29 334.84 269.22 335.104 269.382C335.367 269.545 335.466 269.07 335.323 268.326C335.032 266.801 337.035 263.557 338.268 263.557C338.691 263.557 339.367 263.109 339.769 262.562C340.998 260.89 343.672 259.075 344.343 259.457C344.691 259.656 344.788 259.611 344.558 259.358C344.328 259.104 346.726 256.23 349.887 252.972C353.049 249.715 356.734 245.734 358.076 244.126C359.419 242.517 360.773 241.36 361.087 241.554C361.401 241.748 361.498 241.649 361.304 241.335C361.11 241.021 361.449 240.313 362.057 239.763C362.665 239.213 363.163 238.496 363.163 238.171C363.163 237.845 363.756 237.065 364.483 236.439C367.297 234.007 383.307 212.8 383.307 211.503C383.307 211.203 383.538 210.957 383.821 210.957C384.104 210.957 384.881 210.074 385.548 208.995C386.215 207.915 387.029 207.199 387.358 207.403C387.699 207.614 387.794 207.51 387.579 207.162C387.066 206.331 392.772 197.432 393.521 197.895C393.87 198.11 393.946 197.992 393.709 197.608C393.17 196.735 397.207 190.132 397.986 190.613C398.336 190.829 398.427 190.724 398.203 190.363C397.992 190.02 399.464 187 401.475 183.652C403.485 180.303 405.13 177.292 405.13 176.96C405.13 176.629 405.351 176.273 405.621 176.17C406.279 175.92 414.805 160.833 419.007 152.482C424.181 142.202 425.167 137.465 423.286 131.943C422.326 129.126 418.924 124.783 417.677 124.783C417.24 124.783 416.881 124.578 416.881 124.327C416.881 123.77 413.242 121.985 412.106 121.985C411.655 121.985 411.286 121.74 411.286 121.44C411.286 121.126 410.751 121.068 410.027 121.303C409.334 121.527 407.092 121.71 405.044 121.708C402.996 121.707 401.419 121.865 401.54 122.06C401.66 122.256 401.006 122.727 400.087 123.107C399.168 123.488 398.416 124.021 398.416 124.291C398.416 124.562 398.059 124.783 397.623 124.783C396.378 124.783 393.747 128.5 390.817 134.401C389.337 137.383 387.976 139.731 387.794 139.619C387.612 139.506 387.463 139.836 387.46 140.352C387.455 141.942 379.368 156.172 378.704 155.762C378.335 155.533 378.26 155.649 378.513 156.058C378.751 156.442 377.949 158.377 376.641 160.579C375.383 162.696 374.354 164.678 374.354 164.983C374.354 165.289 374.16 165.622 373.924 165.725C373.688 165.828 372.655 167.234 371.628 168.849C370.601 170.465 369.646 171.787 369.506 171.787C369.367 171.787 369.431 171.496 369.651 171.141C369.9 170.737 369.804 170.647 369.395 170.9C369.035 171.123 368.896 171.557 369.086 171.865C369.496 172.527 360.948 185.297 360.345 184.925C360.117 184.784 359.966 185.107 360.008 185.643C360.05 186.178 359.779 186.556 359.406 186.483C359.013 186.405 358.861 186.701 359.046 187.182C359.222 187.64 359.087 188.015 358.746 188.015C358.405 188.015 358.126 188.306 358.126 188.662C358.126 189.017 357.497 190.133 356.728 191.142C355.958 192.151 355.329 193.245 355.329 193.573C355.329 193.901 355.131 194.17 354.89 194.17C354.648 194.17 354.002 194.93 353.454 195.859C352.897 196.799 352.187 197.381 351.848 197.171C351.501 196.957 351.398 197.053 351.609 197.394C351.961 197.963 340.972 213.249 337.613 216.863C328.587 226.572 327.974 227.149 327.684 226.195C326.737 223.076 325.114 214.378 324.58 209.558C324.239 206.48 323.71 201.75 323.404 199.046C323.046 195.882 323.038 192.89 323.381 190.652C323.673 188.74 324.346 183.469 324.875 178.94C325.403 174.41 326.048 170.835 326.307 170.995C326.566 171.155 326.648 170.947 326.489 170.533C326.33 170.119 326.947 165.007 327.859 159.173C328.771 153.339 329.689 146.868 329.897 144.795C330.106 142.721 330.437 141.123 330.632 141.244C331.1 141.532 330.983 109.078 330.494 102.96C329.627 92.12 327.144 84.1629 323.725 81.2682C322.795 80.4815 322.104 79.6074 322.188 79.3265C322.273 79.0451 322.096 78.9667 321.796 79.152C321.497 79.3372 319.791 79.0037 318.006 78.41C314.496 77.2438 308.58 77.0127 304.562 77.8856Z" fill="#EB3C3C"/>
</svg>
