<svg width="1571" height="346" viewBox="0 0 1571 346" fill="none" xmlns="http://www.w3.org/2000/svg">
<path d="M140.598 112.5C201.098 112.5 231.598 117.5 231.598 153.5C231.598 172 213.598 207 161.598 219C160.598 219 160.598 220 160.598 220.5C160.598 221 160.598 221.5 161.598 221.5C180.098 225 211.098 230 211.098 260C211.098 297 170.098 340 104.098 340C85.0977 340 61.0977 337 42.5977 327.5C38.0977 325 33.5977 323 31.0977 323C25.5977 323 12.0977 329.5 3.09766 336.5L0.0976561 334C8.59766 324.5 10.5977 321 12.5977 318C34.0977 281.5 58.0977 238 73.5977 209.5C86.0977 186 107.598 146 119.098 121C119.598 119.5 120.598 117 116.598 117C98.0977 117 69.0977 123.5 58.5977 123.5C53.0977 123.5 50.5977 122.5 50.5977 118.5C50.5977 115 52.0977 111.5 53.5977 110C54.0977 110 54.5977 110.5 55.0977 111.5C56.5977 113.5 58.5977 114 75.0977 114C96.5977 114 112.598 112.5 140.598 112.5ZM207.598 149C207.598 123.5 183.598 117.5 162.598 117.5C155.598 117.5 148.598 118.5 144.098 124.5C136.598 134 128.598 148 122.098 159.5C100.098 198.5 73.5977 250 48.5977 299.5C47.0977 302.5 46.0977 305 45.5977 308.5C45.5977 316 58.0977 335.5 93.5977 335C139.098 333.5 187.598 300 187.598 254C187.598 234.5 172.098 224.5 145.598 223C136.098 223 123.598 226.5 115.098 226.5C113.098 226 112.098 225.5 112.098 221.5C112.098 218.5 114.598 215.5 117.598 215.5C124.598 215.5 131.598 218.5 138.598 218.5C144.598 218.5 153.598 217.5 158.598 215.5C182.098 205.5 207.598 181.5 207.598 149ZM407.25 266.5C376.75 304.5 331.75 346 301.25 346C287.75 346 283.25 338.5 283.25 328.5C283.25 319.5 289.25 302.5 300.25 284.5C282.75 307.5 252.75 338 233.75 338C226.25 338 223.25 335 223.25 327.5C223.25 297 275.75 225 331.75 225C335.25 218.5 337.75 216 340.25 215L354.25 211L355.25 211.5C352.25 215 349.25 220 345.75 225.5C349.25 225.5 357.75 226.5 360.75 227C364.25 228.5 363.75 231 361.75 231C357.75 230 347.75 229 343.75 229C313.25 283 299.25 313 299.25 328.5C299.25 334.5 301.75 339 310.75 339C331.75 339 371.75 305.5 404.25 265C405.75 263 407.25 264.5 407.25 266.5ZM329.75 229L329.25 228.5C284.25 228.5 242.75 304 242.75 324.5C242.75 327.5 243.75 328.5 245.75 328.5C253.25 328.5 282.25 306 300.75 278.5C311.25 262.5 321.75 243 329.75 229ZM488.828 233C484.828 237.5 479.828 245.5 478.328 249C477.828 250 476.828 250.5 476.328 250.5C474.328 250.5 472.828 241 458.828 241C450.328 241 438.328 248.5 430.328 255.5C405.328 277.5 392.828 306 374.328 335.5C373.828 336.5 372.328 337 371.328 337C369.828 337 363.828 331.5 363.828 329.5C363.828 327 365.328 324 367.328 320.5C388.828 283 413.328 241.5 419.328 230C420.828 227 421.828 225.5 422.828 225.5C423.828 225.5 431.828 229 431.828 235C431.828 239 420.828 255 418.828 259.5C416.828 263 418.828 262.5 420.828 260.5C433.828 247 461.828 226 477.828 226C483.828 226 488.828 229.5 488.828 233ZM830.082 176.5L825.582 178C826.582 174.5 828.082 166 828.082 161C828.082 140.5 816.582 116.5 769.082 116.5C750.082 116.5 733.082 125.5 718.582 136C684.582 160.5 628.082 234 628.082 295C628.082 328 653.582 336 680.582 336C736.082 336 781.582 305.5 822.582 249C823.582 247.5 824.582 247 825.082 247C826.582 247 827.082 249.5 827.082 254C827.082 259 825.082 262.5 823.082 266C792.582 312 739.082 340 679.582 340C641.082 340 606.082 327 606.082 281.5C606.082 230.5 648.082 172.5 686.582 142.5C710.582 124 740.582 112 772.582 112C796.582 112 822.582 116.5 844.082 129C847.082 130.5 848.082 132 848.082 135C843.582 143 834.582 163 830.082 176.5ZM999.395 250C987.895 265.5 971.395 280 950.895 280C939.395 280 927.395 274 920.895 263C911.895 285 890.395 320.5 862.395 334.5C856.895 337 851.395 338.5 847.395 338.5C835.895 338.5 829.395 333.5 829.395 322.5C829.395 299 849.395 269.5 862.395 255.5C876.395 240.5 894.895 228.5 915.395 226.5C916.395 221 918.895 212 925.395 211C928.395 210.5 932.395 210 934.895 208.5C936.895 207 939.895 208.5 938.395 211C933.895 218.5 931.395 230.5 931.395 243.5C931.395 262 937.895 275.5 954.895 275.5C972.395 275.5 986.395 262 995.895 248.5C997.395 245.5 1001.89 247.5 999.395 250ZM916.895 253.5C915.395 247.5 914.895 239 914.895 231.5C914.895 230 914.895 229 912.895 229C898.395 229 879.895 251 866.395 273.5C857.895 288 849.395 306 849.895 321.5C849.895 326 850.895 331 856.895 331C879.395 331 914.395 272.5 916.895 253.5ZM1069.39 233C1065.39 237.5 1060.39 245.5 1058.89 249C1058.39 250 1057.39 250.5 1056.89 250.5C1054.89 250.5 1053.39 241 1039.39 241C1030.89 241 1018.89 248.5 1010.89 255.5C985.895 277.5 973.395 306 954.895 335.5C954.395 336.5 952.895 337 951.895 337C950.395 337 944.395 331.5 944.395 329.5C944.395 327 945.895 324 947.895 320.5C969.395 283 993.895 241.5 999.895 230C1001.39 227 1002.39 225.5 1003.39 225.5C1004.39 225.5 1012.39 229 1012.39 235C1012.39 239 1001.39 255 999.395 259.5C997.395 263 999.395 262.5 1001.39 260.5C1014.39 247 1042.39 226 1058.39 226C1064.39 226 1069.39 229.5 1069.39 233ZM1228.05 266.5C1197.55 304.5 1152.55 346 1122.05 346C1108.55 346 1104.05 338.5 1104.05 328.5C1104.05 319.5 1110.05 302.5 1121.05 284.5C1103.55 307.5 1073.55 338 1054.55 338C1047.05 338 1044.05 335 1044.05 327.5C1044.05 297 1096.55 225 1152.55 225C1156.05 218.5 1158.55 216 1161.05 215L1175.05 211L1176.05 211.5C1173.05 215 1170.05 220 1166.55 225.5C1170.05 225.5 1178.55 226.5 1181.55 227C1185.05 228.5 1184.55 231 1182.55 231C1178.55 230 1168.55 229 1164.55 229C1134.05 283 1120.05 313 1120.05 328.5C1120.05 334.5 1122.55 339 1131.55 339C1152.55 339 1192.55 305.5 1225.05 265C1226.55 263 1228.05 264.5 1228.05 266.5ZM1150.55 229L1150.05 228.5C1105.05 228.5 1063.55 304 1063.55 324.5C1063.55 327.5 1064.55 328.5 1066.55 328.5C1074.05 328.5 1103.05 306 1121.55 278.5C1132.05 262.5 1142.55 243 1150.55 229ZM1435.63 8.99999C1435.63 36.5 1369.13 154 1266.63 209.5C1254.13 231 1219.13 287 1219.13 313.5C1219.13 324 1224.13 329.5 1233.63 329.5C1267.13 329.5 1307.13 287.5 1326.63 264C1331.13 259.5 1331.63 263.5 1329.13 266C1305.13 296 1262.63 337 1223.13 337C1205.63 337 1198.63 327.5 1198.63 315.5C1198.63 291.5 1247.63 217 1261.13 194.5C1283.63 155.5 1311.13 109 1329.63 80.5C1340.63 63.5 1351.63 48.5 1370.13 33C1395.63 11.5 1419.13 -8.34465e-06 1426.63 -8.34465e-06C1431.63 -8.34465e-06 1435.63 2.99998 1435.63 8.99999ZM1413.13 22C1413.13 16.5 1410.13 14 1406.63 14C1399.63 14 1392.13 20.5 1364.63 57C1353.63 71.5 1328.13 110.5 1270.63 203C1351.13 158 1413.13 65.5 1413.13 22ZM1537.19 8.99999C1537.19 36.5 1470.69 154 1368.19 209.5C1355.69 231 1320.69 287 1320.69 313.5C1320.69 324 1325.69 329.5 1335.19 329.5C1368.69 329.5 1408.69 287.5 1428.19 264C1432.69 259.5 1433.19 263.5 1430.69 266C1406.69 296 1364.19 337 1324.69 337C1307.19 337 1300.19 327.5 1300.19 315.5C1300.19 291.5 1349.19 217 1362.69 194.5C1385.19 155.5 1412.69 109 1431.19 80.5C1442.19 63.5 1453.19 48.5 1471.69 33C1497.19 11.5 1520.69 -8.34465e-06 1528.19 -8.34465e-06C1533.19 -8.34465e-06 1537.19 2.99998 1537.19 8.99999ZM1514.69 22C1514.69 16.5 1511.69 14 1508.19 14C1501.19 14 1493.69 20.5 1466.19 57C1455.19 71.5 1429.69 110.5 1372.19 203C1452.69 158 1514.69 65.5 1514.69 22ZM1567.75 250C1556.25 265.5 1539.75 280 1519.25 280C1507.75 280 1495.75 274 1489.25 263C1480.25 285 1458.75 320.5 1430.75 334.5C1425.25 337 1419.75 338.5 1415.75 338.5C1404.25 338.5 1397.75 333.5 1397.75 322.5C1397.75 299 1417.75 269.5 1430.75 255.5C1444.75 240.5 1463.25 228.5 1483.75 226.5C1484.75 221 1487.25 212 1493.75 211C1496.75 210.5 1500.75 210 1503.25 208.5C1505.25 207 1508.25 208.5 1506.75 211C1502.25 218.5 1499.75 230.5 1499.75 243.5C1499.75 262 1506.25 275.5 1523.25 275.5C1540.75 275.5 1554.75 262 1564.25 248.5C1565.75 245.5 1570.25 247.5 1567.75 250ZM1485.25 253.5C1483.75 247.5 1483.25 239 1483.25 231.5C1483.25 230 1483.25 229 1481.25 229C1466.75 229 1448.25 251 1434.75 273.5C1426.25 288 1417.75 306 1418.25 321.5C1418.25 326 1419.25 331 1425.25 331C1447.75 331 1482.75 272.5 1485.25 253.5Z" fill="#E8393E"/>
</svg>
